<svg width="300" height="53" viewBox="0 0 300 53" fill="none" xmlns="http://www.w3.org/2000/svg">
<path d="M77.7178 20.6187H72.0798C72.0553 20.4423 72.0406 20.2648 72.0355 20.0868C71.9018 18.6334 71.5243 17.7197 70.9031 17.3455C70.2819 16.9714 68.8167 16.7848 66.5076 16.7857C63.7836 16.7857 62.0036 17.0002 61.1679 17.4292C60.3321 17.8582 59.9139 18.7612 59.9133 20.1383C59.9133 21.7673 60.2538 22.7452 60.935 23.0719C61.6162 23.3986 63.8693 23.6513 67.6944 23.8298C72.2135 24.044 75.1361 24.5934 76.4622 25.478C77.7884 26.3626 78.4518 28.1997 78.4524 30.9894C78.4524 34.4232 77.6726 36.642 76.113 37.6459C74.5534 38.6497 71.1145 39.1517 65.7962 39.1517C61.0115 39.1517 57.8365 38.6587 56.2711 37.6728C54.7058 36.6869 53.9221 34.6887 53.9202 31.6781L53.8976 30.7302H59.513L59.5356 31.2828C59.5356 33.1013 59.907 34.2137 60.6498 34.6199C61.3925 35.0261 63.4202 35.2297 66.7328 35.2307C69.318 35.2307 70.9672 34.9971 71.6805 34.53C72.3938 34.0628 72.7502 32.9833 72.7499 31.2914C72.7499 30.041 72.4792 29.2106 71.9379 28.8002C71.3965 28.3898 70.2277 28.1407 68.4314 28.0529L65.2502 27.8812C60.4424 27.6417 57.3704 27.0735 56.034 26.1768C54.6976 25.28 54.03 23.355 54.0313 20.4018C54.0313 17.3825 54.8373 15.3718 56.4491 14.3695C58.061 13.3673 61.2811 12.8652 66.1093 12.8633C70.6842 12.8633 73.7667 13.3237 75.3568 14.2445C76.9468 15.1653 77.7411 16.9625 77.7395 19.6362L77.7178 20.6187ZM94.631 17.4999V38.9304H88.838V17.4999H80.0572V13.0888H103.678V17.4999H94.631V17.4999ZM111.812 17.2325V23.8717H126.029V27.4806H111.812V34.7882H126.966V38.9304H106.019V13.0888H126.832V17.2325H111.812V17.2325ZM137.037 13.0888V34.5208H151.3V38.9304H131.244V13.0888H137.037ZM159.99 13.0888V34.5208H174.252V38.9304H154.196V13.0888H159.99ZM195.556 33.9856H182.43L180.536 38.9304H174.43L184.547 13.0888H193.215L203.489 38.9304H197.494L195.556 33.9856ZM194.218 30.3786L188.961 16.8987L183.79 30.3767L194.218 30.3786Z" fill="#95A5A6"/>
<path d="M231.745 13.0889L222.609 25.6093L232.347 38.931H225.572L221.205 32.7237C220.536 31.7666 219.897 30.7959 219.288 29.8116L218.662 28.7897L218.017 27.7869H217.929L217.283 28.8075C216.509 30.0444 215.632 31.3493 214.653 32.7222L210.262 38.9305H203.31L213.294 25.6088L204.023 13.0889H210.909L214.965 18.8494C215.604 19.7584 216.205 20.6551 216.77 21.5397L217.327 22.4487L217.884 23.3591H217.972C218.226 22.9551 218.412 22.6516 218.53 22.4487L219.087 21.557C219.563 20.775 220.157 19.8786 220.87 18.8677L224.926 13.0889H231.745ZM234.864 13.0889H240.658V38.9305H234.864V13.0889ZM265.594 13.0889H271.388V30.283C271.388 33.8764 270.575 36.253 268.948 37.4127C267.321 38.5724 263.997 39.153 258.976 39.1546C253.672 39.1546 250.196 38.6057 248.547 37.5079C246.898 36.4101 246.073 34.0965 246.073 30.5672V13.0889H251.867V30.5672C251.867 32.4765 252.267 33.6865 253.066 34.1972C253.866 34.708 255.747 34.9645 258.709 34.9667C261.742 34.9667 263.649 34.7078 264.428 34.19C265.208 33.6722 265.596 32.4016 265.594 30.3782V13.0889ZM299.264 20.6187H293.627C293.603 20.4424 293.588 20.2648 293.582 20.0868C293.449 18.6335 293.072 17.7197 292.451 17.3456C291.829 16.9714 290.364 16.7848 288.054 16.7858C285.331 16.7858 283.551 17.0003 282.714 17.4292C281.878 17.8582 281.46 18.7612 281.459 20.1383C281.459 21.7674 281.8 22.7452 282.482 23.0719C283.164 23.3987 285.417 23.6513 289.241 23.8299C293.761 24.0441 296.684 24.5934 298.01 25.478C299.336 26.3626 299.999 28.1997 300 30.9894C300 34.4232 299.22 36.6421 297.661 37.6459C296.101 38.6498 292.662 39.1527 287.343 39.1546C282.559 39.1546 279.384 38.6617 277.818 37.6758C276.251 36.6899 275.468 34.6916 275.467 31.681L275.446 30.7331H281.061L281.083 31.2857C281.083 33.1042 281.454 34.2166 282.197 34.6228C282.94 35.0291 284.968 35.2326 288.281 35.2336C290.866 35.2336 292.515 35 293.227 34.5329C293.939 34.0658 294.296 32.9862 294.297 31.2943C294.297 30.0439 294.027 29.2135 293.485 28.8031C292.943 28.3928 291.774 28.1436 289.978 28.0558L286.797 27.8841C281.989 27.6446 278.917 27.0765 277.582 26.1797C276.246 25.2829 275.578 23.3579 275.578 20.4047C275.578 17.3855 276.384 15.3747 277.996 14.3725C279.608 13.3702 282.829 12.8681 287.657 12.8662C292.232 12.8662 295.315 13.3266 296.905 14.2474C298.495 15.1682 299.289 16.9645 299.288 19.6362L299.264 20.6187Z" fill="#9C9EA0"/>
<path d="M62.4985 41.4676L60.8697 47.3989H60.0254L58.5524 42.7983L57.1804 47.3989H56.314L54.6091 41.4676H55.4832L56.8297 46.274L58.2647 41.4676H58.9507L60.4944 46.274L61.7558 41.4676H62.4985V41.4676ZM78.2206 47.3989H77.3547L76.6812 45.6675H74.1797L73.5759 47.3989H72.8702L75.0557 41.4676H76.0265L78.2206 47.3989ZM76.4979 45.1077L75.4554 42.2582L74.4115 45.1077H76.4979ZM94.3693 47.3989H93.4861L92.244 44.8317H90.3111V47.3989H89.5217V41.4676H92.1771C92.8997 41.4676 93.4341 41.6412 93.7805 41.9884C94.1274 42.3337 94.3025 42.7132 94.3025 43.1229C94.2994 43.4478 94.1989 43.7643 94.0138 44.0314C93.8214 44.32 93.4967 44.5287 93.0517 44.6528L94.3693 47.3989ZM90.3111 44.2286H92.0752C92.5375 44.2286 92.8853 44.1204 93.1138 43.9049C93.2243 43.8048 93.3122 43.6823 93.3716 43.5456C93.431 43.4088 93.4605 43.261 93.4582 43.1119C93.4582 42.8007 93.3365 42.5564 93.0945 42.3823C92.8525 42.2082 92.5456 42.1221 92.1805 42.1221H90.3145L90.3111 44.2286ZM106.985 47.3989H106.137V41.4676H108.527C109.276 41.4676 109.827 41.646 110.182 42.0029C110.537 42.3597 110.714 42.7675 110.715 43.2263C110.72 43.467 110.671 43.7058 110.571 43.9249C110.471 44.1439 110.323 44.3375 110.138 44.4912C109.753 44.823 109.247 44.9893 108.619 44.9899H106.984L106.985 47.3989ZM106.985 44.3743H108.537C108.934 44.3743 109.253 44.27 109.499 44.0593C109.745 43.8487 109.864 43.5717 109.864 43.2263C109.864 42.9305 109.747 42.6467 109.538 42.4371C109.32 42.2049 109.003 42.088 108.595 42.088H106.983L106.985 44.3743ZM134.422 45.8325L135.185 45.6805C135.489 46.4894 136.151 46.8944 137.168 46.8944C137.702 46.8944 138.103 46.7947 138.371 46.5952C138.5 46.506 138.604 46.3861 138.675 46.2463C138.745 46.1066 138.779 45.9514 138.775 45.795C138.778 45.676 138.751 45.5581 138.698 45.4518C138.645 45.3455 138.566 45.2541 138.468 45.1856C138.257 45.0294 138.014 44.9211 137.757 44.8682L136.41 44.5739C136.114 44.5127 135.827 44.4158 135.554 44.2853C135.323 44.1661 135.128 43.9883 134.987 43.7698C134.832 43.5328 134.751 43.255 134.755 42.9719C134.755 42.478 134.967 42.0817 135.394 41.786C135.821 41.4902 136.363 41.3445 137.03 41.3445C138.256 41.3445 139.061 41.8331 139.445 42.8103L138.675 43.0085C138.633 42.8403 138.556 42.683 138.448 42.5474C138.34 42.4117 138.204 42.301 138.05 42.2227C137.727 42.0453 137.365 41.9532 136.997 41.9553C136.652 41.9491 136.312 42.0374 136.013 42.2106C135.724 42.3809 135.58 42.6242 135.58 42.9354C135.58 43.373 135.946 43.6698 136.674 43.8232L137.934 44.0935C139.084 44.3352 139.66 44.8815 139.661 45.7325C139.661 46.2461 139.447 46.6717 139.011 47.0132C138.576 47.3546 137.971 47.5239 137.186 47.5239C135.792 47.5239 134.87 46.9596 134.422 45.831V45.8325ZM152.186 47.3989H151.342V41.4676H153.732C154.477 41.4676 155.031 41.6465 155.387 42.0029C155.742 42.3592 155.921 42.769 155.921 43.2263C155.925 43.4674 155.875 43.7063 155.774 43.9253C155.673 44.1443 155.524 44.3377 155.338 44.4912C154.953 44.823 154.448 44.9893 153.822 44.9899H152.187L152.186 47.3989ZM152.186 44.3743H153.738C154.135 44.3743 154.456 44.2693 154.7 44.0593C154.946 43.8491 155.066 43.5717 155.066 43.2263C155.065 42.9307 154.948 42.6472 154.74 42.4371C154.522 42.2049 154.21 42.088 153.797 42.088H152.186V44.3743ZM171.778 46.7448V47.3989H167.416V41.4676H171.683V42.1221H168.261V44.0083H170.978V44.6119H168.261V46.7448H171.778ZM187.739 46.7448V47.3989H183.378V41.4676H187.645V42.1221H184.223V44.0083H186.939V44.6119H184.223V46.7448H187.739ZM199.338 47.3989V41.4676H201.599C202.551 41.4676 203.292 41.7531 203.823 42.3241C204.352 42.8945 204.618 43.5923 204.618 44.4181C204.618 45.2549 204.36 45.9612 203.844 46.537C203.327 47.1108 202.669 47.3989 201.877 47.3989H199.338ZM200.185 46.7679H201.555C202.276 46.7679 202.827 46.5467 203.203 46.1061C203.579 45.6656 203.763 45.0871 203.763 44.3647C203.768 43.7941 203.58 43.2385 203.229 42.7887C202.872 42.3217 202.315 42.088 201.555 42.088H200.185V46.7679ZM233.793 47.3989H232.927L232.254 45.6675H229.749L229.145 47.3989H228.44L230.625 41.4676H231.595L233.793 47.3989ZM232.069 45.1077L231.026 42.2582L229.982 45.1077H232.069ZM249.907 47.3989H249.06V44.5715H245.938V47.3989H245.091V41.4676H245.938V43.917H249.06V41.4676H249.907V47.3989ZM266.376 46.7448V47.3989H262.012V41.4676H266.279V42.1221H262.861V44.0083H265.574V44.6119H262.861V46.7448H266.376ZM282.512 47.3989H281.646L280.973 45.6675H278.467L277.863 47.3989H277.158L279.343 41.4676H280.314L282.512 47.3989ZM280.789 45.1077L279.747 42.2582L278.703 45.1077H280.789ZM293.811 47.3989V41.4676H296.072C297.023 41.4676 297.763 41.7531 298.292 42.3241C298.821 42.8951 299.086 43.5931 299.088 44.4181C299.088 45.2549 298.829 45.9612 298.311 46.537C297.793 47.1129 297.138 47.4001 296.347 47.3989H293.811ZM294.659 46.7679H296.024C296.75 46.7679 297.297 46.5467 297.673 46.1061C298.049 45.6656 298.238 45.0871 298.238 44.3647C298.241 43.794 298.052 43.2389 297.701 42.7887C297.341 42.3217 296.787 42.088 296.024 42.088H294.659V46.7679Z" fill="url(#paint0_linear)"/>
<path d="M22.0734 36.1495C34.9313 38.3521 40.931 36.7747 43.7212 34.9635C43.5288 34.7654 43.3301 34.5538 43.1281 34.3277C40.2811 36.0985 34.2703 37.5918 21.6217 35.4233C10.8118 33.5688 4.85866 34.3922 1.57301 35.7772C1.49123 36.124 1.41666 36.4669 1.35413 36.8064C4.47429 35.2472 10.4904 34.1613 22.0734 36.1495V36.1495ZM25.094 1.36792C24.4128 1.77478 23.5633 2.16433 22.4963 2.49521C22.5189 2.75924 22.5353 3.03866 22.5497 3.33491C23.9501 2.94103 25.0074 2.44712 25.8021 1.93205C25.5578 1.72284 25.3211 1.5324 25.094 1.36792ZM35.839 20.541C35.7428 20.2726 35.65 19.9836 35.5542 19.7047C32.8954 21.5024 27.153 23.1255 14.8099 21.1475C14.5646 21.3249 14.3207 21.5038 14.0633 21.6765L14.2283 21.7029C27.0245 23.8988 33.0306 22.3459 35.839 20.542V20.541ZM26.9043 2.96556C25.97 3.66434 24.5952 4.35447 22.5776 4.84357C22.5747 5.11385 22.568 5.39135 22.5555 5.67606C24.93 5.16098 26.4804 4.37756 27.4835 3.59268C27.2862 3.3705 27.0924 3.15985 26.9062 2.96748L26.9043 2.96556ZM34.2472 15.9501C34.1409 15.6654 34.035 15.3908 33.9292 15.1147C31.9568 16.7628 27.6658 18.5081 18.3702 17.7391C18.2014 17.9546 18.0335 18.1672 17.8478 18.3764C27.6129 19.3334 32.1464 17.6194 34.2472 15.9501Z" fill="#95A5A6"/>
<path d="M20.9527 34.0842C33.1841 36.1811 39.208 34.8566 42.1675 33.1623C41.9991 32.942 41.8307 32.7112 41.6561 32.4717C38.6735 34.1501 32.6473 35.4428 20.5 33.3595C11.5676 31.8287 5.95029 32.1264 2.41208 33.0555C2.28941 33.3739 2.17155 33.6928 2.0686 34.0102C5.53898 32.9084 11.3151 32.4337 20.9493 34.0842H20.9527ZM35.0579 18.2478C34.9617 17.9636 34.8654 17.676 34.7721 17.4019C32.4803 19.1332 27.5057 20.839 16.7516 19.5179C16.5457 19.7161 16.3398 19.9152 16.1199 20.1047C27.3662 21.6417 32.616 19.9921 35.0579 18.2478Z" fill="#95A5A6"/>
<path d="M19.8322 32.0225C31.7515 34.0683 37.7758 32.8583 40.8152 31.228C40.6651 30.9938 40.5155 30.7523 40.3625 30.5032C37.3232 32.1341 31.2979 33.3407 19.3796 31.2958C12.1887 30.0646 7.1481 30.018 3.60893 30.5263C3.442 30.8173 3.28758 31.1097 3.13989 31.404C6.70889 30.7403 11.9938 30.6749 19.8327 32.0201L19.8322 32.0225ZM22.1591 0C22.1591 0 22.2404 0.360695 22.3304 0.986861C22.7644 0.836251 23.1894 0.660907 23.6033 0.461689C22.6984 0.0288556 22.1601 0 22.1601 0H22.1591ZM28.4134 4.72366C27.3272 5.65617 25.5025 6.63293 22.4526 7.17301C22.4247 7.44281 22.3934 7.71742 22.3564 7.99684C25.8003 7.46782 27.7808 6.40353 28.9171 5.39984C28.7468 5.16643 28.5789 4.94104 28.4134 4.72366Z" fill="#95A5A6"/>
<path d="M18.7104 29.958C30.5272 31.9841 36.5506 30.8155 39.6145 29.2044C39.4807 28.9639 39.3451 28.7143 39.2113 28.458C36.1585 30.0773 30.1361 31.269 18.2587 29.2347C12.7323 28.2849 8.47679 28.0381 5.19547 28.206C4.98477 28.47 4.78369 28.735 4.5927 29.0029C8.00247 28.7177 12.574 28.9067 18.7119 29.958H18.7104ZM24.3167 40.2748C40.5607 43.0608 45.8625 39.8088 47.5707 37.6778C47.3021 37.5782 47.0399 37.4621 46.7856 37.3301C44.7628 39.4361 39.1738 42.1774 23.865 39.551C8.53837 36.9228 2.95469 39.6703 0.936157 41.7801C0.942892 42.2048 0.954919 42.6088 0.979453 42.9824C2.59774 40.8558 7.79802 37.4436 24.3167 40.2748ZM32.0142 10.6916C30.5229 12.1176 27.3661 13.732 20.7496 13.7931C20.6433 14.036 20.5322 14.2779 20.4129 14.5179C27.4624 14.5813 30.8139 12.9457 32.3913 11.4842C32.2653 11.211 32.1383 10.9523 32.0113 10.6916H32.0142ZM30.925 8.59766C29.5954 9.88558 26.9178 11.3389 21.5516 11.6669C21.4707 11.9199 21.3837 12.1709 21.2937 12.4249C27.0828 12.1921 29.9393 10.6935 31.3397 9.35992C31.2002 9.09638 31.0636 8.84485 30.925 8.59766V8.59766ZM36.6646 22.785C36.5616 22.5185 36.4577 22.2526 36.3548 21.9746C33.4843 23.7367 27.4686 25.2007 14.8942 23.0442C14.0311 22.8937 13.2104 22.7691 12.4095 22.6546C12.1925 22.7715 11.9813 22.8951 11.7572 23.0052C11.6417 23.0625 11.5373 23.1255 11.4247 23.1827C12.6558 23.3385 13.959 23.5299 15.3468 23.767C27.7192 25.8874 33.7412 24.5057 36.6646 22.785" fill="#95A5A6"/>
<path d="M33.0147 12.8672C31.3127 14.4129 27.6211 16.1259 19.6975 15.8225C19.5604 16.0519 19.4252 16.2808 19.2751 16.5064C27.6355 16.9676 31.546 15.266 33.3577 13.692C33.2437 13.4145 33.1292 13.1355 33.0147 12.8691V12.8672ZM37.5569 24.9808C37.4458 24.7225 37.3356 24.4541 37.2259 24.1867C34.2607 25.8777 28.2383 27.2012 16.0154 25.1077C13.6376 24.6989 11.5093 24.4272 9.57932 24.2565C9.27241 24.4565 8.97896 24.6633 8.69128 24.8721C10.9561 25.0226 13.5317 25.3265 16.4672 25.8339C28.5259 27.9019 34.5517 26.6428 37.5569 24.9827" fill="#9C9EA0"/>
<path d="M17.589 27.8936C29.4611 29.9308 35.4845 28.7401 38.5373 27.1169C38.4142 26.8654 38.291 26.6134 38.1688 26.3475C35.1425 27.9946 29.1177 29.2229 17.1359 27.1722C13.2003 26.4989 9.91561 26.1801 7.15961 26.1142C6.9008 26.3479 6.65017 26.5846 6.4106 26.826C9.39703 26.8188 13.0622 27.1227 17.589 27.897V27.8936ZM29.7334 6.60303C28.5308 7.73176 26.2876 8.96918 22.1081 9.45684C22.0557 9.71847 21.9989 9.98057 21.9359 10.2441C26.5204 9.81129 28.9291 8.50798 30.188 7.32442C30.0357 7.07626 29.8842 6.8358 29.7334 6.60303ZM23.1939 38.2129C37.2 40.6175 43.0675 38.5269 45.5151 36.5383C45.2962 36.3791 45.0663 36.1968 44.8306 35.9972C42.2492 37.9272 36.322 39.8148 22.7412 37.4881C9.86173 35.2783 3.86386 36.8668 1.07851 38.6803C1.0357 39.0651 1.00347 39.4363 0.9823 39.7975C3.49536 37.8387 9.39751 35.8477 23.1948 38.2129" fill="#95A5A6"/>
<path d="M0 10.5193C0 10.5193 4.7144 4.91266 23.3315 10.1346C41.9486 15.3565 46.663 9.75318 46.663 9.75318C46.663 9.75318 52.5641 14.9568 35.2137 31.3766C17.8633 47.7964 23.7644 53 23.7644 53C23.7644 53 8.69711 47.1572 11.8822 31.7594C15.0673 16.3616 0 10.5193 0 10.5193Z" fill="white"/>
<path d="M1.14587 11.0514C1.14587 11.0514 5.61975 5.64149 23.2882 10.6874C40.9566 15.7332 45.4295 10.3243 45.4295 10.3243C45.4295 10.3243 51.0305 15.3495 34.5719 31.1965C18.1134 47.0435 23.7091 52.0653 23.7091 52.0653C23.7091 52.0653 9.41051 46.4226 12.4292 31.5576C15.4478 16.6927 1.14587 11.0514 1.14587 11.0514Z" fill="url(#paint1_linear)"/>
<defs>
<linearGradient id="paint0_linear" x1="54.6091" y1="41.3445" x2="54.6124" y2="47.65" gradientUnits="userSpaceOnUse">
<stop stop-color="#F41E3D"/>
<stop offset="1" stop-color="#D5122E"/>
</linearGradient>
<linearGradient id="paint1_linear" x1="1.14587" y1="8.5354" x2="2.01849" y2="52.9365" gradientUnits="userSpaceOnUse">
<stop stop-color="#F41E3D"/>
<stop offset="1" stop-color="#D5122E"/>
</linearGradient>
</defs>
</svg>
